<?xml version="1.0" standalone="no"?>
<!DOCTYPE svg PUBLIC "-//W3C//DTD SVG 20010904//EN"
 "http://www.w3.org/TR/2001/REC-SVG-20010904/DTD/svg10.dtd">
<svg version="1.0" xmlns="http://www.w3.org/2000/svg"
 width="1000.000000pt" height="1000.000000pt" viewBox="0 0 1000.000000 1000.000000"
 preserveAspectRatio="xMidYMid meet">
<metadata>
Created by potrace 1.14, written by Peter Selinger 2001-2017
</metadata>
<g transform="translate(0.000000,1000.000000) scale(0.100000,-0.100000)"
fill="#000000" stroke="none">
<path d="M2624 8432 c-58 -8 -192 -46 -241 -68 -17 -8 -34 -14 -38 -14 -12 0
-95 -60 -120 -88 -14 -15 -29 -30 -33 -35 -4 -4 -19 -16 -34 -27 -15 -11 -48
-52 -74 -91 -49 -75 -76 -87 -82 -36 -2 15 -10 27 -17 27 -20 0 -35 -33 -40
-87 -2 -27 -6 -59 -9 -72 -3 -12 -8 -43 -11 -68 -3 -25 -10 -52 -16 -60 -16
-19 -38 -119 -33 -149 3 -15 -5 -38 -21 -63 -19 -28 -25 -49 -24 -79 2 -22 -3
-47 -10 -55 -18 -22 -40 -99 -45 -158 -2 -19 -11 -47 -20 -62 -22 -33 -23
-174 -2 -239 7 -23 17 -56 21 -73 10 -47 74 -187 100 -221 13 -17 21 -34 18
-38 -9 -9 145 -157 202 -193 28 -18 62 -42 76 -55 l27 -23 -21 -37 c-11 -21
-24 -38 -29 -38 -4 0 -8 -6 -8 -14 0 -8 -4 -16 -8 -18 -5 -1 -27 -41 -50 -88
-38 -79 -55 -140 -56 -200 -1 -18 -12 -30 -40 -46 -21 -12 -52 -34 -68 -48
-17 -14 -36 -26 -42 -26 -7 0 -21 -9 -31 -20 -10 -11 -24 -20 -30 -20 -7 0
-24 -9 -38 -20 -14 -11 -32 -20 -41 -20 -18 0 -86 -31 -86 -40 0 -3 -8 -6 -17
-7 -10 -1 -40 -4 -68 -7 -45 -6 -232 -17 -280 -17 -10 0 -25 -5 -31 -10 -9 -7
-19 -7 -34 1 -14 8 -25 8 -33 1 -7 -5 -24 -11 -37 -14 -14 -2 -43 -11 -64 -20
-22 -10 -67 -29 -100 -43 -34 -14 -70 -31 -81 -37 -11 -5 -30 -11 -42 -13 -11
-1 -44 -14 -73 -28 -28 -14 -58 -26 -66 -26 -8 0 -14 -4 -14 -9 0 -5 -12 -14
-27 -20 -28 -11 -52 -25 -82 -48 -55 -42 -210 -145 -231 -153 -16 -7 -39 -34
-59 -72 -36 -65 -39 -90 -43 -353 -3 -171 30 -227 137 -231 28 -1 73 -9 100
-17 36 -10 85 -14 175 -11 155 4 206 11 332 44 92 24 153 47 268 101 121 57
141 69 178 101 18 15 39 28 46 28 7 0 30 14 51 30 21 17 47 30 59 30 12 0 29
9 39 20 9 11 29 20 45 20 15 0 33 5 40 12 6 6 24 13 39 14 16 1 44 5 63 8 19
3 71 8 115 11 44 3 98 8 120 12 90 14 259 4 313 -20 48 -21 142 -110 142 -135
0 -9 9 -35 18 -57 l18 -40 -44 -58 c-25 -32 -55 -64 -68 -69 -13 -6 -24 -15
-24 -20 0 -4 -6 -8 -14 -8 -11 0 -28 -17 -54 -55 -4 -6 -22 -22 -41 -35 -37
-26 -91 -104 -91 -132 0 -10 -8 -26 -17 -36 -26 -25 -53 -69 -53 -84 0 -7 -10
-29 -22 -48 -12 -19 -23 -42 -25 -50 -6 -36 -14 -110 -18 -170 -2 -36 -7 -94
-10 -130 -17 -153 -6 -342 24 -398 11 -20 29 -75 41 -122 12 -47 34 -112 50
-145 16 -33 38 -87 50 -120 12 -33 28 -76 36 -95 8 -19 17 -46 19 -60 5 -25
18 -90 20 -100 15 -64 48 -140 75 -175 4 -5 7 -31 5 -56 -2 -27 5 -69 16 -100
24 -66 25 -72 33 -133 4 -27 9 -53 12 -58 11 -17 33 -7 46 22 15 35 24 38 33
11 3 -10 22 -36 42 -57 21 -22 47 -60 60 -85 13 -25 48 -73 78 -105 30 -33 57
-71 60 -86 9 -41 148 -175 294 -285 51 -39 70 -48 94 -44 4 1 21 -12 37 -29
29 -30 88 -61 150 -79 19 -6 60 -19 90 -30 91 -32 171 -44 300 -44 157 0 231
47 165 105 -14 12 -25 28 -25 35 0 7 -6 22 -12 33 -10 15 -10 24 -2 38 9 13 8
23 -2 43 -8 17 -11 38 -6 55 14 58 -5 120 -52 167 -14 14 -26 31 -26 37 0 6
-18 29 -40 52 -21 23 -46 56 -54 73 -9 17 -27 40 -42 51 -14 10 -36 42 -49 69
-12 28 -33 60 -45 73 -12 13 -20 26 -16 29 6 6 -39 100 -60 124 -8 9 -17 33
-19 53 -3 21 -12 44 -20 52 -18 19 -18 14 0 52 27 53 6 141 -60 253 -23 39
-35 73 -35 97 0 58 -19 111 -52 148 -48 52 -54 66 -53 109 2 52 -12 116 -31
136 -8 9 -17 29 -20 44 -3 16 -9 36 -14 45 -5 9 -9 35 -8 58 0 44 -18 81 -60
120 -19 18 -23 29 -17 50 3 15 9 54 12 87 5 55 3 64 -21 92 -17 21 -25 40 -22
55 2 13 7 41 12 63 16 87 8 124 -35 155 -12 8 -21 24 -21 36 0 11 -8 28 -18
37 -20 19 -28 72 -11 83 6 3 28 8 48 11 20 2 47 6 61 10 26 6 86 13 130 16 22
2 43 -1 113 -18 42 -10 65 -19 133 -52 39 -19 79 -36 90 -38 10 -2 20 -4 22
-5 1 -2 5 -3 10 -4 4 -2 25 -7 47 -14 22 -6 51 -13 65 -16 14 -2 59 -11 100
-19 67 -14 117 -22 214 -33 31 -4 38 -5 86 -17 34 -9 76 -17 130 -23 25 -3 72
-10 105 -14 60 -9 468 -6 515 3 14 3 48 8 75 12 28 3 64 8 80 11 17 2 48 6 70
8 22 2 69 7 105 11 36 3 72 9 80 12 8 2 31 7 50 9 19 3 50 14 69 25 19 11 48
22 63 24 16 2 35 9 42 14 7 6 46 20 87 30 182 47 477 152 594 212 107 55 219
115 260 138 40 23 225 150 235 160 3 3 28 24 55 46 59 47 114 95 129 113 6 7
17 18 24 25 7 7 23 23 35 37 12 14 90 94 174 178 84 84 174 181 199 215 26 34
67 81 91 105 41 39 101 149 108 197 1 6 6 19 10 30 4 11 21 55 37 97 16 43 33
80 38 83 5 3 22 -1 37 -8 44 -23 124 -48 168 -53 22 -3 49 -13 60 -23 26 -23
49 -31 105 -37 25 -3 56 -8 70 -11 14 -3 32 -8 40 -10 8 -2 42 -6 74 -8 32 -3
83 -14 113 -25 29 -11 53 -17 53 -14 0 4 6 2 13 -3 6 -6 26 -14 42 -18 35 -10
35 -10 55 -18 27 -11 104 -30 132 -33 16 -1 41 -15 57 -31 15 -15 58 -43 95
-62 37 -19 76 -46 86 -60 25 -34 52 -61 60 -61 10 0 10 40 0 66 -12 30 2 32
45 6 17 -10 54 -19 85 -21 30 -2 57 -6 60 -9 6 -8 11 -9 89 -18 96 -10 144
-11 175 -2 16 4 47 10 69 13 48 8 136 41 158 61 8 8 23 14 32 14 8 0 25 13 37
30 11 16 27 27 34 24 15 -6 106 47 140 80 36 36 55 73 62 115 6 37 3 44 -29
76 -19 19 -42 35 -50 35 -9 0 -17 15 -21 42 -4 23 -14 51 -23 61 -17 18 -45
83 -44 102 2 59 13 97 36 130 43 63 22 130 -50 161 -16 7 -39 21 -51 32 -37
35 -181 100 -208 93 -9 -2 -42 40 -39 50 1 3 -10 12 -25 20 -35 17 -82 69 -82
90 0 9 -9 27 -19 40 -10 14 -25 45 -32 69 -7 25 -21 52 -31 61 -10 9 -15 18
-12 21 3 3 -7 15 -22 27 -23 18 -36 20 -88 16 -63 -6 -123 -19 -166 -36 -14
-5 -70 -11 -125 -12 -59 -2 -110 -9 -125 -17 -16 -9 -53 -13 -104 -12 -72 2
-87 -1 -143 -29 -35 -17 -82 -33 -106 -34 -23 -2 -47 -4 -53 -4 -6 -1 -29 -13
-50 -28 -21 -14 -56 -28 -76 -30 l-36 -3 34 57 c19 31 48 100 66 154 30 92 33
97 63 102 39 6 125 58 125 75 0 13 -103 64 -130 65 -8 0 -21 4 -28 10 -32 25
27 28 144 7 65 -11 143 -3 204 22 19 8 58 16 87 17 29 1 60 3 70 5 20 4 142
20 158 21 6 0 16 4 23 8 6 5 12 6 12 3 0 -17 228 75 242 97 9 14 -10 27 -39
27 -30 0 -29 6 4 34 l27 24 -30 6 c-60 13 -113 16 -284 15 -96 0 -251 0 -345
1 -93 1 -215 2 -270 2 -55 0 -134 -1 -175 -2 -72 -3 -78 -1 -163 44 -49 25
-94 46 -101 46 -7 0 -48 18 -92 41 -70 36 -112 55 -204 91 -14 5 -27 10 -30
10 -3 0 -14 5 -25 11 -11 6 -24 12 -30 13 -5 2 -41 14 -79 28 -38 14 -76 26
-84 26 -9 0 -46 16 -82 35 -87 45 -261 98 -425 129 -11 2 -47 13 -80 24 -33
11 -78 22 -100 25 -22 3 -47 7 -55 10 -8 3 -30 9 -47 12 -73 12 -101 18 -246
55 l-152 38 -265 -3 c-146 -1 -274 -5 -285 -8 -11 -2 -28 0 -37 5 -10 5 -18 5
-18 1 0 -4 -33 -8 -73 -9 -72 -1 -163 -10 -189 -19 -7 -2 -31 -7 -53 -9 -42
-5 -58 -8 -170 -32 -38 -9 -78 -17 -89 -19 -10 -3 -44 -12 -75 -21 -31 -10
-61 -18 -67 -20 -6 -1 -38 -10 -70 -20 -33 -9 -62 -17 -66 -16 -5 1 -8 -2 -8
-8 0 -5 -7 -10 -15 -10 -8 0 -52 -18 -98 -40 -51 -25 -104 -43 -138 -46 -30
-3 -57 -8 -62 -11 -4 -2 -19 -7 -34 -9 -56 -10 -152 -48 -263 -102 -63 -32
-117 -60 -120 -63 -6 -8 -241 -126 -335 -169 -113 -51 -185 -90 -278 -149 -49
-31 -97 -60 -106 -66 -14 -8 -130 -92 -176 -127 -78 -60 -184 -151 -188 -161
-3 -9 -7 -9 -20 2 -22 18 -21 32 4 81 l22 41 -23 31 c-21 28 -21 32 -6 43 23
17 31 69 16 105 -11 25 -10 33 2 48 23 26 31 53 32 102 1 34 9 55 32 85 19 26
31 52 31 73 1 21 10 43 26 60 46 51 53 112 22 200 -19 52 -19 53 0 90 11 20
26 41 33 45 7 4 24 31 38 58 22 44 33 54 89 79 79 36 93 47 87 77 -2 13 1 30
7 37 10 11 7 23 -12 53 -48 76 -91 104 -182 120 -25 5 -275 9 -301 5z"/>
</g>
</svg>
